<svg width="40" height="40" viewBox="0 0 40 40" fill="none" xmlns="http://www.w3.org/2000/svg">
<path fill-rule="evenodd" clip-rule="evenodd" d="M20 6.66665C12.6362 6.66665 6.66665 12.6362 6.66665 20C6.66665 23.4985 8.01341 26.6831 10.22 29.0629C10.3033 28.7873 10.4141 28.5165 10.5586 28.2581C11.0486 27.382 11.6667 26.5719 12.4001 25.8556C13.1362 25.1367 13.9666 24.5334 14.8622 24.0567C13.4981 22.751 12.6452 20.9261 12.6452 18.8889C12.6452 14.8633 15.9753 11.6666 20 11.6666C24.0246 11.6666 27.3547 14.8633 27.3547 18.8889C27.3547 20.9261 26.5019 22.751 25.1377 24.0568C26.0334 24.5334 26.8638 25.1367 27.5998 25.8556C28.3332 26.5719 28.9514 27.382 29.4414 28.2581C29.5859 28.5165 29.6967 28.7873 29.78 29.0629C31.9865 26.6831 33.3333 23.4985 33.3333 20C33.3333 12.6362 27.3638 6.66665 20 6.66665ZM26.5685 31.6061C26.6332 31.2732 26.6657 30.9607 26.6666 30.6838C26.6682 30.2263 26.5844 29.9787 26.5321 29.8852C26.1979 29.2876 25.775 28.7327 25.2707 28.2402C23.8794 26.8813 21.9842 26.1111 20 26.1111C18.0158 26.1111 16.1205 26.8813 14.7292 28.2402C14.225 28.7327 13.8021 29.2876 13.4678 29.8852C13.4155 29.9787 13.3317 30.2263 13.3333 30.6838C13.3343 30.9607 13.3667 31.2732 13.4314 31.6061C15.3692 32.7054 17.6091 33.3333 20 33.3333C22.3908 33.3333 24.6308 32.7054 26.5685 31.6061ZM20 22.7778C22.2582 22.7778 24.0214 20.9998 24.0214 18.8889C24.0214 16.7779 22.2582 15 20 15C17.7418 15 15.9786 16.7779 15.9786 18.8889C15.9786 20.9998 17.7418 22.7778 20 22.7778ZM3.33331 20C3.33331 10.7952 10.7952 3.33331 20 3.33331C29.2047 3.33331 36.6666 10.7952 36.6666 20C36.6666 25.9287 33.5698 31.133 28.9133 34.0852C26.3345 35.7202 23.2752 36.6666 20 36.6666C16.7247 36.6666 13.6655 35.7202 11.0867 34.0852C6.4302 31.133 3.33331 25.9287 3.33331 20Z" fill="#DCDCDC"/>
</svg>
